<?xml version="1.0" encoding="utf-8"?>
<!-- Generator: Adobe Illustrator 16.0.0, SVG Export Plug-In . SVG Version: 6.00 Build 0)  -->
<!DOCTYPE svg PUBLIC "-//W3C//DTD SVG 1.1//EN" "http://www.w3.org/Graphics/SVG/1.1/DTD/svg11.dtd">
<svg version="1.1" id="Capa_1" xmlns="http://www.w3.org/2000/svg" xmlns:xlink="http://www.w3.org/1999/xlink" x="0px" y="0px"
	 width="113px" height="113px" viewBox="0 0 113 113" enable-background="new 0 0 113 113" xml:space="preserve">
<g>
	<g id="XMLID_1_">
		<g>
			<path fill="#FFFFFF" d="M-227.45,28.579l11.606,15.475l-32.016,29.664l-32.027-29.675l11.596-15.464H-227.45z M-220.109,42.614
				l-7.616-10.166l-3.989,10.166H-220.109z M-243.475,66.177l22.674-21.013h-11.991L-243.475,66.177z M-234.144,41.768l4.188-10.639
				h-14.827L-234.144,41.768z M-247.859,69.146l12.188-23.983h-24.278L-247.859,69.146z M-258.817,42.614h21.915l-10.957-10.958
				L-258.817,42.614z M-261.434,41.603l10.484-10.474h-13.968L-261.434,41.603z M-252.201,66.222l-10.605-21.058h-12.111
				L-252.201,66.222z M-263.785,42.614l-3.639-10.935l-8.198,10.935H-263.785z"/>
		</g>
	</g>
	<path fill="none" stroke="#030104" stroke-miterlimit="10" d="M-284.094,93.172c0.549-0.426,1.087-0.997,1.614-1.715
		c0.526-0.719,0.792-1.313,0.792-1.782c0-0.659-0.126-1.203-0.375-1.628c-0.246-0.425-0.553-0.638-0.912-0.638
		c-0.648,0-1.203,0.118-1.66,0.353c-0.46,0.233-0.845,0.539-1.153,0.913c-0.308,0.374-0.557,0.798-0.744,1.275
		c-0.189,0.477-0.406,1.067-0.656,1.771c-0.247,0.704-0.388,1.284-0.418,1.737c-0.03,0.456-0.044,0.844-0.044,1.166
		c0.542,0,1.133-0.136,1.773-0.407C-285.238,93.946-284.645,93.598-284.094,93.172z"/>
	<path fill="none" stroke="#030104" stroke-miterlimit="10" d="M-226.906,83.284c0.387-1.149,0.751-2.23,1.092-3.242
		c0.342-1.013,0.625-1.872,0.853-2.578c0.105-0.327,0.258-0.739,0.454-1.237c0.197-0.492,0.411-1.026,0.638-1.596
		c0.228-0.57,0.454-1.163,0.683-1.777c0.227-0.616,0.436-1.208,0.625-1.778c0.189-0.568,0.345-1.102,0.466-1.597
		s0.182-0.913,0.182-1.261c0-0.479-0.159-0.718-0.479-0.718c-0.486,0-0.905,0.149-1.254,0.448c-0.351,0.299-0.682,0.725-0.994,1.278
		c-0.312,0.555-0.624,1.226-0.937,2.019c-0.312,0.793-0.665,1.675-1.06,2.647c-0.215,0.873-0.434,1.772-0.66,2.698
		c-0.226,0.925-0.406,1.84-0.545,2.745c-0.14,0.906-0.273,1.797-0.404,2.675c-0.134,0.876-0.259,1.698-0.375,2.463
		c-0.224,1.891-0.402,3.748-0.539,5.578c0.33-1.005,0.691-2.096,1.087-3.275C-227.683,85.597-227.293,84.432-226.906,83.284z"/>
	<path fill="#FDFDFD" d="M-292.831,98.044c-0.226,0.208-0.45,0.415-0.691,0.61c-0.346,0.281-0.696,0.528-1.058,0.738
		c-0.361,0.213-0.713,0.386-1.059,0.523c-0.344,0.136-0.674,0.204-0.99,0.204c-0.299,0-0.555-0.258-0.764-0.772
		c-0.209-0.514-0.315-1.181-0.315-1.999c0-1.044,0.054-2.031,0.158-2.963c0.104-0.93,0.263-1.964,0.474-3.099
		c0.209-1.136,0.367-2.173,0.471-3.111c0.105-0.938,0.158-1.929,0.158-2.974c0-0.682-0.245-1.207-0.732-1.579
		c-0.487-0.37-1.083-0.557-1.787-0.557c-0.631,0-1.164,0.209-1.598,0.626c-0.437,0.416-0.87,0.927-1.305,1.531
		c-0.451,0.623-0.934,1.34-1.451,2.158c-0.518,0.817-1.006,1.598-1.462,2.339c-0.46,0.741-0.882,1.486-1.272,2.236
		c-0.389,0.749-0.6,1.146-0.629,1.192l-0.248-0.272c0-0.03,0.008-0.092,0.023-0.182c0.044-0.287,0.089-0.508,0.134-0.659
		c0.271-0.937,0.458-1.657,0.563-2.157c0.135-0.574,0.254-1.06,0.359-1.453c0.09-0.347,0.181-0.862,0.271-1.545
		c0.075-0.529,0.113-1.089,0.113-1.679c0-0.682-0.227-1.207-0.677-1.579c-0.449-0.37-0.988-0.557-1.62-0.557
		c-0.675,0-1.255,0.204-1.742,0.613s-0.949,0.924-1.384,1.544c-0.449,0.623-0.922,1.337-1.418,2.147
		c-0.494,0.808-0.955,1.585-1.383,2.327s-0.825,1.49-1.192,2.248c-0.368,0.756-0.565,1.157-0.597,1.203l-0.247-0.272
		c0.226-1.272,0.442-2.424,0.651-3.452c0.018-0.029,0.076-0.423,0.182-1.181c0.059-0.393,0.104-0.778,0.135-1.157
		c0.045-0.38,0.078-0.735,0.102-1.067c0.021-0.334,0.033-0.628,0.033-0.886c0-0.47-0.015-0.841-0.045-1.113
		c-0.031-0.272-0.124-0.48-0.281-0.624s-0.397-0.233-0.721-0.272c-0.322-0.038-0.768-0.058-1.338-0.058
		c-0.375,0-0.684,0.027-0.923,0.081c-0.239,0.053-0.445,0.158-0.618,0.318c-0.172,0.157-0.326,0.381-0.463,0.668
		c-0.133,0.288-0.275,0.674-0.426,1.158c-0.15,0.469-0.315,1.075-0.496,1.816c-0.178,0.743-0.355,1.56-0.527,2.454
		c-0.172,0.891-0.375,1.938-0.607,3.14c-0.232,1.2-0.41,2.269-0.529,3.204s-0.217,1.827-0.291,2.672
		c-0.077,0.847-0.113,1.578-0.113,2.197c0,0.584,0.033,1.146,0.102,1.692c0.066,0.546,0.201,1.032,0.404,1.463
		c0.201,0.429,0.492,0.772,0.866,1.025c0.374,0.256,0.87,0.384,1.485,0.384c0.479,0,0.918-0.106,1.315-0.318
		c0.397-0.21,0.746-0.614,1.046-1.21c1.035-2.025,1.879-3.733,2.531-5.13s1.188-2.533,1.609-3.408
		c0.418-0.875,0.744-1.419,0.978-1.874c0.232-0.451,0.438-0.899,0.619-0.899h0.337c-0.24,0-0.442,2.565-0.607,3.769
		c-0.074,0.511-0.15,0.968-0.225,1.487c-0.074,0.521-0.143,0.983-0.202,1.451c-0.06,0.466-0.105,0.866-0.136,1.228
		c-0.029,0.362-0.045,0.632-0.045,0.827c0,0.452,0.025,0.914,0.078,1.396c0.053,0.48,0.158,0.919,0.316,1.319
		c0.157,0.401,0.378,0.727,0.664,0.983c0.284,0.256,0.666,0.381,1.146,0.381c0.631,0,1.186-0.108,1.665-0.324
		c0.479-0.217,0.913-0.487,1.304-1.113l4.568-11.403h0.337c-0.121,0-0.214,2.017-0.28,3.084c-0.068,1.067-0.102,2.002-0.102,2.953
		c0,0.986,0.047,1.858,0.146,2.696c0.096,0.838,0.258,1.545,0.483,2.164c0.224,0.616,0.521,1.087,0.888,1.434
		c0.368,0.344,0.822,0.512,1.361,0.512c1.095,0,2.076-0.143,2.947-0.427c0.869-0.284,1.669-0.649,2.395-1.091
		c0.729-0.444,1.418-0.941,2.07-1.488c0.198-0.165,0.397-0.316,0.596-0.479c-0.492-0.736-0.908-1.531-1.184-2.438
		C-292.66,98.972-292.748,98.51-292.831,98.044z"/>
	<path fill="#FDFDFD" d="M-275.12,98.331c0.063-0.753,0.151-1.549,0.256-2.375c-0.312,0.252-0.631,0.505-0.984,0.77
		c-0.841,0.623-1.733,1.199-2.678,1.726c-0.944,0.529-1.916,0.968-2.913,1.321c-0.998,0.352-1.946,0.526-2.846,0.526
		c-0.286,0-0.555-0.028-0.803-0.088c-0.248-0.058-0.486-0.16-0.711-0.307c-0.227-0.146-0.449-0.353-0.666-0.616
		c-0.219-0.264-0.44-0.595-0.668-0.99c1.309-0.354,2.523-0.843,3.643-1.475c1.121-0.629,2.085-1.349,2.897-2.153
		c0.812-0.809,1.521-1.775,2.13-2.904c0.608-1.13,0.914-2.148,0.914-3.06c0-0.854-0.151-1.624-0.451-2.313
		c-0.3-0.688-0.717-1.276-1.25-1.763c-0.531-0.487-1.16-0.866-1.881-1.137c-0.721-0.269-1.502-0.404-2.342-0.404
		c-1.029,0-1.966,0.182-2.809,0.544c-0.842,0.363-1.604,0.852-2.282,1.467c-0.679,0.614-1.272,1.324-1.779,2.131
		c-0.507,0.808-0.928,1.653-1.265,2.542c-0.335,0.89-0.66,1.907-0.973,3.053c-0.313,1.147-0.471,2.136-0.471,2.965
		c0,0.775,0.089,1.521,0.22,2.254c0.099-0.09,0.203-0.171,0.298-0.263c0.734-0.696,1.463-1.483,2.182-2.361l0.383,5.333
		c-0.461,0.356-0.916,0.731-1.373,1.104c0.133,0.201,0.242,0.421,0.393,0.608c0.699,0.878,1.576,1.576,2.625,2.095
		c1.051,0.519,2.276,0.779,3.676,0.779c0.902,0,1.791-0.105,2.668-0.314c0.877-0.21,1.726-0.485,2.541-0.832
		c0.819-0.349,1.6-0.746,2.342-1.193c0.686-0.413,1.324-0.835,1.928-1.265c-0.026-0.362-0.063-0.72-0.063-1.098
		C-275.233,99.979-275.196,99.208-275.12,98.331z"/>
	<path fill="#FDFDFD" d="M-290.352,95.42c-0.719,0.878-1.447,1.665-2.182,2.361c-0.095,0.092-0.199,0.173-0.298,0.263
		c0.083,0.466,0.171,0.928,0.306,1.375c0.275,0.907,0.691,1.703,1.184,2.438c0.457-0.373,0.912-0.748,1.373-1.104L-290.352,95.42z"
		/>
	<path fill="#FDFDFD" d="M-255.865,92.894c-0.328,0.168-0.674,0.326-1.033,0.478c-0.719,0.3-1.417,0.449-2.092,0.449
		c-0.24,0-0.469-0.045-0.686-0.134c-0.219-0.092-0.414-0.245-0.586-0.462c-0.173-0.218-0.313-0.506-0.416-0.866
		c-0.105-0.359-0.158-0.811-0.158-1.351c0-0.314,0.038-0.708,0.113-1.181c0.074-0.473,0.193-1.076,0.361-1.811
		c0.163-0.734,0.283-1.331,0.359-1.788c0.075-0.457,0.111-0.813,0.111-1.069c0-0.329-0.059-0.625-0.181-0.89
		c-0.12-0.261-0.28-0.482-0.483-0.663c-0.201-0.179-0.438-0.317-0.707-0.416c-0.271-0.097-0.548-0.146-0.834-0.146
		c-0.824,0-1.553,0.221-2.182,0.664c-0.629,0.442-1.192,0.986-1.688,1.63c-0.495,0.645-0.967,1.14-1.418,2.116
		c-0.449,0.973-0.824,2.045-1.123,2.045h-0.248c-0.031,0-0.008-1.34,0.066-2.361c0.076-1.021,0.113-1.65,0.113-2.204
		c0-0.465-0.012-0.753-0.035-1.024c-0.021-0.269-0.084-0.438-0.19-0.58c-0.104-0.143-0.266-0.212-0.483-0.249
		c-0.219-0.038-0.521-0.047-0.912-0.047c-0.344,0-0.631,0.023-0.865,0.061c-0.231,0.038-0.426,0.116-0.585,0.229
		c-0.157,0.111-0.294,0.267-0.416,0.462c-0.12,0.194-0.239,0.457-0.359,0.787c-0.194,0.495-0.391,1.126-0.586,1.891
		c-0.194,0.765-0.425,1.721-0.697,2.869c-0.269,1.147-0.49,2.228-0.663,3.241c-0.172,1.01-0.322,2.005-0.449,2.979
		c-0.02,0.138-0.033,0.268-0.048,0.403c0.423-0.345,0.814-0.681,1.152-1.002l2.901,2.948c-1.319,1.406-2.723,2.648-4.207,3.729
		c-0.049,0.034-0.103,0.069-0.152,0.104c0.016,0.213,0.014,0.438,0.037,0.646c0.068,0.562,0.204,1.064,0.406,1.507
		c0.202,0.441,0.49,0.796,0.865,1.057c0.375,0.262,0.871,0.395,1.486,0.395c0.268,0,0.517-0.049,0.74-0.146
		c0.226-0.098,0.437-0.267,0.631-0.506c0.195-0.241,0.385-0.553,0.574-0.935c0.188-0.382,0.386-0.151,0.597-0.739l4.026-10.514
		h0.359c0.119,0,0.276,1.166,0.473,2.089c0.195,0.923,0.495,1.397,0.899,2.142c0.405,0.742,0.952,1.165,1.643,1.622
		c0.689,0.456,1.597,0.596,2.723,0.596c0.63,0,1.248-0.137,1.856-0.324c0.213-0.066,0.408-0.192,0.616-0.269
		c0.048-0.924,0.173-1.87,0.432-2.835C-256.586,94.701-256.252,93.806-255.865,92.894z"/>
	<path fill="#FDFDFD" d="M-270.811,97.902l-2.901-2.948c-0.338,0.321-0.729,0.657-1.152,1.002c-0.104,0.826-0.193,1.622-0.256,2.375
		c-0.076,0.877-0.113,1.648-0.113,2.307c0,0.378,0.037,0.735,0.063,1.098c0.05-0.034,0.104-0.069,0.152-0.104
		C-273.533,100.551-272.13,99.309-270.811,97.902z"/>
	<path fill="#FFFFFF" d="M-234.153,97.018c0.016-0.376,0.04-0.788,0.06-1.186c-0.481,0.605-0.959,1.185-1.435,1.702
		c-0.314,0.342-0.649,0.673-1.001,0.992c-0.354,0.319-0.705,0.605-1.057,0.859c-0.354,0.252-0.704,0.456-1.048,0.612
		c-0.344,0.158-0.674,0.234-0.988,0.234c-0.421,0-0.694-0.193-0.821-0.581c-0.129-0.389-0.19-0.925-0.19-1.611
		c0-0.805,0.123-1.794,0.37-2.968c0.246-1.174,0.469-2.22,0.662-3.136c0.192-0.917,0.365-1.813,0.516-2.687
		c0.149-0.873,0.224-1.669,0.224-2.387c0-0.469-0.042-0.842-0.123-1.114c-0.083-0.271-0.199-0.484-0.35-0.636
		c-0.151-0.151-0.324-0.251-0.52-0.296c-0.196-0.045-0.407-0.068-0.634-0.068c-0.168,0-0.336,0.005-0.51,0.013
		c-0.174,0.007-0.343,0.011-0.509,0.011c-0.195,0-0.389-0.011-0.578-0.034c-0.188-0.022-0.373-0.072-0.554-0.147
		c-0.182-0.077-0.332-0.197-0.452-0.364c-0.121-0.166-0.246-0.337-0.374-0.512c-0.127-0.174-0.29-0.329-0.485-0.467
		c-0.198-0.136-0.469-0.203-0.815-0.203c-1.042,0-2.064,0.221-3.066,0.662c-1.002,0.439-1.957,1.033-2.863,1.782
		c-0.906,0.745-1.739,1.621-2.5,2.621c-0.763,1.002-1.476,2.189-2.139,3.564c-0.205,0.421-0.359,0.816-0.531,1.219
		c0.331-0.169,0.646-0.346,0.946-0.535c0.705-0.435,1.396-0.931,2.069-1.485l-0.336,5.266c-0.391,0.254-0.832,0.539-1.328,0.854
		c-0.494,0.315-1.023,0.611-1.586,0.889c-0.365,0.181-0.754,0.31-1.138,0.453c-0.011,0.208-0.043,0.421-0.043,0.627
		c0,0.998,0.157,1.895,0.473,2.689s0.735,1.469,1.261,2.021c0.523,0.552,1.127,0.974,1.809,1.271
		c0.684,0.294,1.384,0.441,2.105,0.441c0.678,0,1.359-0.111,2.04-0.334c0.682-0.221,1.334-0.508,1.963-0.856
		c0.624-0.35,1.204-0.739,1.734-1.17c0.528-0.429,0.974-0.854,1.336-1.268c0.485,1.201,1.06,2.118,1.724,2.75
		c0.666,0.631,1.498,0.946,2.494,0.946c0.825,0,1.649-0.206,2.475-0.613c0.823-0.412,1.597-0.913,2.316-1.503
		c0.496-0.407,0.946-0.835,1.376-1.272c-0.038-0.508-0.067-1.029-0.067-1.594C-234.242,99.601-234.213,98.451-234.153,97.018z
		 M-245.889,94.678c-0.06,0.483-0.189,1.087-0.395,1.813c-0.201,0.724-0.469,1.427-0.798,2.105c-0.331,0.68-0.722,1.261-1.173,1.744
		s-0.954,0.726-1.51,0.726c-0.346,0-0.633-0.09-0.857-0.268c-0.225-0.179-0.405-0.41-0.539-0.695
		c-0.137-0.285-0.23-0.612-0.282-0.975c-0.053-0.363-0.079-0.739-0.079-1.125c0-0.655,0.086-1.355,0.258-2.098
		c0.172-0.743,0.471-1.605,0.889-2.587c0.42-0.981,0.849-1.806,1.284-2.476c0.433-0.669,0.909-1.263,1.429-1.784
		c0.518-0.52,1.066-0.934,1.651-1.237c0.587-0.304,1.185-0.457,1.8-0.457L-245.889,94.678z"/>
	<path fill="#FDFDFD" d="M-254.514,96.992c0.496-0.314,0.938-0.6,1.328-0.854l0.336-5.266c-0.674,0.555-1.364,1.051-2.069,1.485
		c-0.3,0.189-0.615,0.366-0.946,0.535c-0.387,0.912-0.721,1.797-0.94,2.615c-0.259,0.963-0.384,1.902-0.432,2.825
		c0.384-0.144,0.772-0.272,1.138-0.453C-255.537,97.604-255.008,97.308-254.514,96.992z"/>
	<path fill="#FFFFFF" d="M-215.343,100.817c0-0.473,0.025-0.983,0.077-1.534c0.053-0.553,0.131-1.144,0.235-1.773
		c0.058-0.348,0.113-0.671,0.165-0.98c-0.26,0.32-0.521,0.643-0.805,0.986c-1.085,1.316-2.896,3.9-4.91,3.414
		c-1.017-0.244-2.149-0.856-2.222-2.013c-0.142-2.212,2.864-3.918,4.182-5.315c1.493-1.583,3.434-4.021,3.434-6.321
		c0-0.642-0.083-1.221-0.247-1.739c-0.1-0.316-0.23-0.593-0.374-0.853c-0.848-1.525-2.466,1.65-2.778,2.179
		c-0.969,1.633-2.143,3.147-3.465,4.507c-2.058,2.113-4.692,3.671-5.345,6.757c-0.32,1.523-0.153,3.422,0.972,4.573
		c2.343,2.397,6.211,2.564,9.223,1.526c0.256-0.089,2.394-0.993,2.315-1.153c-0.071-0.148-0.149-0.292-0.202-0.455
		C-215.26,102.088-215.342,101.487-215.343,100.817z"/>
	<path fill="#FFFFFF" d="M-229.33,98.054c0-0.854,0.022-2.565,0.022-2.565l1.971-2.895l2.678-4.032
		c0.135-0.241,0.408-0.752,0.82-1.527c0.413-0.778,0.89-1.732,1.428-2.866c0.543-1.134,1.104-2.399,1.688-3.805
		c0.587-1.403,1.125-2.851,1.621-4.336c0.494-1.487,0.904-2.972,1.226-4.45c0.323-1.479,0.484-2.86,0.484-4.145
		c0-0.718-0.061-1.381-0.18-1.993c-0.12-0.612-0.326-1.139-0.619-1.579c-0.291-0.44-0.687-0.785-1.182-1.03
		c-0.494-0.246-1.125-0.371-1.889-0.371c-0.977,0-1.877,0.202-2.702,0.606c-0.827,0.404-1.585,0.954-2.273,1.649
		c-0.693,0.696-1.313,1.509-1.87,2.435c-0.555,0.928-1.055,1.903-1.498,2.929c-0.442,1.023-0.816,2.085-1.121,3.182
		c-0.307,1.098-0.597,2.144-0.874,3.14c-0.276,0.996-0.497,1.935-0.657,2.816c-0.164,0.88-0.3,1.624-0.411,2.231
		c-0.284,1.769-0.528,3.589-0.729,5.465c-0.203,1.875-0.363,3.67-0.483,5.385c-0.09,1.264-0.156,2.424-0.212,3.535
		c0.264-0.331,0.526-0.66,0.793-1.02l1.081,4.952c-0.347,0.485-0.809,1.055-1.385,1.707c-0.18,0.201-0.378,0.396-0.57,0.592
		c0.006,0.089,0.003,0.193,0.011,0.281c0.053,0.585,0.176,1.1,0.37,1.544c0.196,0.445,0.479,0.799,0.856,1.06
		c0.374,0.261,0.885,0.392,1.529,0.392c0.48,0,0.899-0.112,1.261-0.337c0.096-0.061,0.194-0.162,0.291-0.246
		C-229.035,103.689-229.333,101.021-229.33,98.054z"/>
	<path fill="#FFFFFF" d="M-232.22,99.765l-1.081-4.952c-0.267,0.359-0.529,0.688-0.793,1.02c-0.02,0.397-0.044,0.81-0.06,1.186
		c-0.06,1.434-0.089,2.583-0.089,3.452c0,0.564,0.029,1.086,0.067,1.594c0.192-0.196,0.391-0.391,0.57-0.592
		C-233.028,100.819-232.566,100.25-232.22,99.765z"/>
	<path fill="#FEFEFE" d="M-207.134,80.391c0.766,0,1.421-0.117,1.97-0.353c0.548-0.234,1.002-0.541,1.361-0.92
		s0.621-0.811,0.786-1.294c0.164-0.485,0.248-0.985,0.248-1.498c0-0.561-0.101-1.045-0.304-1.454
		c-0.202-0.408-0.477-0.739-0.822-0.988c-0.344-0.249-0.749-0.435-1.213-0.557c-0.467-0.121-0.961-0.181-1.486-0.181
		c-0.839,0-1.541,0.133-2.103,0.397s-1.013,0.589-1.351,0.977c-0.337,0.385-0.582,0.797-0.729,1.238
		c-0.151,0.438-0.226,0.832-0.226,1.179c0,1.045,0.314,1.883,0.944,2.511S-208.453,80.391-207.134,80.391z"/>
	<path fill="#FFFFFF" d="M-203.934,97.443c-0.645,0.569-0.666,1.121-1.341,1.654c-0.674,0.53-1.022,0.984-1.684,1.359
		c-0.66,0.376-1.099,0.563-1.639,0.563c-0.465,0-0.693-0.198-0.844-0.597c-0.149-0.397-0.185-0.934-0.185-1.607
		c0-0.69,0.127-1.456,0.343-2.3c0.215-0.843,0.404-1.692,0.546-2.548c0.143-0.854,0.41-1.887,0.798-3.098
		c0.386-1.213,0.682-2.203,0.879-2.974c0.197-0.77,0.374-1.457,0.528-2.059c0.154-0.604,0.23-1.069,0.23-1.399
		c0-0.389-0.111-0.7-0.332-0.934c-0.22-0.233-0.641-0.349-1.258-0.349c-0.34,0-0.718,0.041-1.14,0.126
		c-0.421,0.083-0.826,0.21-1.217,0.385c-0.39,0.177-0.739,0.4-1.049,0.671c-0.339,0.305-0.545,0.646-0.617,1.025
		c-0.135,0.54-0.488,1.706-1.056,3.498c-0.613,2.197-1.021,3.615-1.227,4.257c-0.108,0.279-0.33,1.419-0.67,3.41
		c0.063-0.077,0.134-0.163,0.194-0.239c0.316-0.388,0.6-0.721,0.856-0.995l1.35,5.61c-0.462,0.631-1.055,1.215-1.766,1.754
		c-0.23,0.176-0.481,0.334-0.725,0.492c0.138,0.355,0.305,0.681,0.533,0.95c0.329,0.39,0.762,0.695,1.294,0.913
		c0.531,0.216,1.188,0.325,1.968,0.325c0.87,0,1.789-0.157,2.756-0.473c0.968-0.313,1.917-0.71,2.846-1.183
		c0.931-0.472,0.518-0.99,1.32-1.551c0.803-0.562,0.738-1.092,0.738-1.587V95.98C-203.5,96.386-203.289,96.872-203.934,97.443z"/>
	<path fill="#FFFFFF" d="M-212.465,100.905l-1.35-5.61c-0.257,0.274-0.54,0.607-0.856,0.995c-0.061,0.076-0.132,0.162-0.194,0.239
		c-0.052,0.31-0.107,0.633-0.165,0.98c-0.21,1.26-0.313,2.362-0.313,3.308c0,0.674,0.07,1.293,0.212,1.855
		c0.044,0.172,0.113,0.324,0.176,0.479c0.243-0.158,0.494-0.316,0.725-0.492C-213.52,102.12-212.927,101.536-212.465,100.905z"/>
	<path fill="none" d="M-309.607,81.17c-1.01-4.518-1.541-9.215-1.541-14.037c0-35.183,28.333-63.703,63.282-63.703
		c34.951,0,63.284,28.52,63.284,63.703c0,4.631-0.49,9.146-1.424,13.497"/>
	
		<text transform="matrix(0.8773 -0.3771 0.3949 0.9187 -276.2139 10.0327)" fill="#FFFFFF" font-family="'BenthamRegular'" font-size="9.9709">M</text>
	
		<text transform="matrix(0.9182 -0.2625 0.2749 0.9615 -267.9917 6.6475)" fill="#FFFFFF" font-family="'BenthamRegular'" font-size="9.9709">A</text>
	
		<text transform="matrix(0.941 -0.1627 0.1704 0.9854 -261.1782 4.7881)" fill="#FFFFFF" font-family="'BenthamRegular'" font-size="9.9709">R</text>
	
		<text transform="matrix(0.9526 -0.0661 0.0692 0.9976 -254.8569 3.7612)" fill="#FFFFFF" font-family="'BenthamRegular'" font-size="9.9709">K</text>
	
		<text transform="matrix(0.9546 0.0262 -0.0275 0.9996 -248.4473 3.3901)" fill="#FFFFFF" font-family="'BenthamRegular'" font-size="9.9709">E</text>
	
		<text transform="matrix(0.9478 0.1163 -0.1218 0.9926 -242.4766 3.6133)" fill="#FFFFFF" font-family="'BenthamRegular'" font-size="9.9709">T</text>
	
		<text transform="matrix(0.9361 0.1886 -0.1975 0.9803 -236.4932 4.4458)" fill="#FFFFFF" font-family="'BenthamRegular'" font-size="9.9709">I</text>
	
		<text transform="matrix(0.9157 0.2711 -0.2839 0.9589 -232.9834 5.1211)" fill="#FFFFFF" font-family="'BenthamRegular'" font-size="9.9709">N</text>
	
		<text transform="matrix(0.877 0.3778 -0.3956 0.9184 -225.8135 7.3237)" fill="#FFFFFF" font-family="'BenthamRegular'" font-size="9.9709">G</text>
	<g>
		<defs>
			<polygon id="SVGID_1_" points="-173.495,89.567 -322.505,75.113 -322.505,47.191 -173.495,47.191 			"/>
		</defs>
		<clipPath id="SVGID_2_">
			<use xlink:href="#SVGID_1_"  overflow="visible"/>
		</clipPath>
		
			<circle clip-path="url(#SVGID_2_)" fill="none" stroke="#FFFFFF" stroke-width="3" stroke-miterlimit="10" cx="-247.315" cy="65.751" r="66.474"/>
	</g>
	
		<text transform="matrix(0.9613 0 0 1 -229.7158 118.6934)" fill="#FFFFFF" font-family="'BebasNeueRegular'" font-size="11.6327" letter-spacing="1.04">Desing</text>
	<g>
		<defs>
			<polygon id="SVGID_3_" points="-184.265,94.954 -312.309,76.102 -311.736,3.43 -184.265,3.43 			"/>
		</defs>
		<clipPath id="SVGID_4_">
			<use xlink:href="#SVGID_3_"  overflow="visible"/>
		</clipPath>
		
			<circle clip-path="url(#SVGID_4_)" fill="none" stroke="#FFFFFF" stroke-width="3" stroke-miterlimit="10" cx="-247.415" cy="66.746" r="56.865"/>
	</g>
	<polygon fill="#FFFFFF" points="-233.646,110.476 -233.646,118.693 -269.772,118.693 -263.804,114.585 -272.053,110.476 	"/>
</g>
<g>
	<g id="XMLID_2_">
		<g>
			<path fill="#010002" d="M73.916,33.522l8.739,11.652L58.553,67.506l-24.11-22.341l8.729-11.643H73.916z M79.442,44.09
				l-5.733-7.656l-3.003,7.656H79.442z M61.854,61.827l17.069-15.817h-9.027L61.854,61.827z M68.879,43.453l3.153-8.01H60.869
				L68.879,43.453z M58.553,64.064l9.176-18.055H49.45L58.553,64.064z M50.305,44.09h16.497l-8.249-8.251L50.305,44.09z
				 M48.334,43.329l7.894-7.886H45.711L48.334,43.329z M55.285,61.863l-7.984-15.854h-9.118L55.285,61.863z M46.563,44.09
				l-2.737-8.233l-6.173,8.233H46.563z"/>
		</g>
	</g>
	<path fill="none" stroke="#030104" stroke-miterlimit="10" d="M74.329,74.706c0.29-0.863,0.564-1.679,0.82-2.441
		c0.255-0.763,0.471-1.408,0.642-1.938c0.079-0.25,0.195-0.559,0.34-0.932c0.149-0.372,0.313-0.773,0.481-1.2
		c0.173-0.43,0.341-0.876,0.513-1.34c0.172-0.463,0.329-0.908,0.473-1.339c0.143-0.429,0.257-0.829,0.351-1.2
		c0.091-0.373,0.136-0.688,0.136-0.951c0-0.36-0.119-0.54-0.36-0.54c-0.366,0-0.682,0.111-0.945,0.336
		c-0.261,0.226-0.512,0.544-0.746,0.964c-0.236,0.417-0.474,0.923-0.704,1.518c-0.234,0.598-0.502,1.263-0.801,1.993
		c-0.159,0.656-0.326,1.335-0.497,2.033c-0.169,0.693-0.305,1.382-0.411,2.064c-0.104,0.683-0.205,1.355-0.302,2.014
		c-0.099,0.659-0.196,1.279-0.283,1.854c-0.169,1.423-0.304,2.822-0.405,4.202c0.249-0.761,0.52-1.579,0.817-2.47
		C73.743,76.447,74.036,75.572,74.329,74.706z"/>
	<path d="M24.697,85.817c-0.169,0.156-0.34,0.313-0.521,0.46c-0.26,0.215-0.523,0.396-0.797,0.557
		c-0.27,0.16-0.534,0.289-0.795,0.394c-0.26,0.103-0.508,0.153-0.747,0.153c-0.223,0-0.418-0.193-0.575-0.582
		c-0.156-0.387-0.237-0.889-0.237-1.504c0-0.786,0.043-1.53,0.12-2.229c0.077-0.7,0.197-1.479,0.355-2.334
		c0.157-0.854,0.277-1.636,0.356-2.343c0.08-0.707,0.119-1.453,0.119-2.237c0-0.514-0.184-0.909-0.551-1.189
		c-0.368-0.277-0.818-0.419-1.347-0.419c-0.475,0-0.876,0.156-1.204,0.471c-0.327,0.314-0.655,0.697-0.981,1.15
		c-0.34,0.473-0.704,1.011-1.094,1.629c-0.388,0.613-0.758,1.199-1.099,1.757c-0.346,0.561-0.664,1.121-0.957,1.688
		c-0.293,0.562-0.454,0.861-0.477,0.896l-0.185-0.207c0-0.021,0.006-0.068,0.016-0.135c0.033-0.217,0.067-0.383,0.103-0.498
		c0.202-0.705,0.344-1.245,0.426-1.624c0.1-0.434,0.19-0.798,0.269-1.093c0.067-0.261,0.138-0.648,0.203-1.163
		c0.058-0.397,0.084-0.819,0.084-1.263c0-0.514-0.168-0.909-0.507-1.189c-0.339-0.277-0.744-0.419-1.222-0.419
		c-0.508,0-0.942,0.153-1.31,0.461c-0.368,0.311-0.714,0.695-1.044,1.16c-0.336,0.473-0.692,1.008-1.066,1.619
		c-0.37,0.608-0.719,1.192-1.042,1.753c-0.319,0.558-0.619,1.121-0.898,1.692c-0.273,0.567-0.423,0.87-0.448,0.905L7.46,81.927
		c0.172-0.957,0.334-1.824,0.489-2.598c0.015-0.023,0.061-0.318,0.138-0.889c0.046-0.296,0.08-0.588,0.101-0.872
		c0.034-0.286,0.061-0.552,0.077-0.803s0.026-0.474,0.026-0.666c0-0.354-0.011-0.633-0.033-0.838
		c-0.025-0.207-0.093-0.362-0.211-0.471c-0.121-0.106-0.301-0.177-0.546-0.204c-0.239-0.03-0.576-0.044-1.005-0.044
		c-0.283,0-0.516,0.02-0.695,0.06c-0.18,0.042-0.336,0.121-0.465,0.242c-0.13,0.117-0.247,0.285-0.349,0.502
		c-0.1,0.217-0.208,0.51-0.321,0.872c-0.113,0.354-0.236,0.809-0.373,1.365c-0.134,0.561-0.266,1.176-0.397,1.849
		c-0.131,0.67-0.281,1.458-0.455,2.363c-0.177,0.904-0.31,1.709-0.402,2.413c-0.087,0.705-0.161,1.373-0.216,2.01
		c-0.058,0.638-0.087,1.189-0.087,1.656c0,0.441,0.025,0.861,0.077,1.273c0.05,0.411,0.152,0.778,0.306,1.101
		c0.149,0.323,0.367,0.581,0.649,0.773c0.283,0.189,0.655,0.287,1.12,0.287c0.36,0,0.69-0.079,0.991-0.239
		c0.297-0.158,0.559-0.462,0.785-0.911c0.781-1.523,1.414-2.812,1.906-3.859c0.492-1.054,0.896-1.91,1.212-2.568
		c0.314-0.657,0.562-1.643,0.737-1.981c0.174-0.341,0.329-1.25,0.465-1.25h0.254c-0.183,0-0.333,2.498-0.458,3.409
		c-0.054,0.384-0.112,1.015-0.17,1.405c-0.056,0.391-0.108,0.884-0.151,1.235c-0.045,0.353-0.081,0.726-0.104,0.999
		c-0.02,0.269-0.032,0.51-0.032,0.655c0,0.338,0.021,0.708,0.058,1.07c0.039,0.362,0.12,0.696,0.238,0.998
		c0.119,0.304,0.286,0.554,0.5,0.747c0.216,0.193,0.5,0.287,0.863,0.287c0.475,0,0.893-0.076,1.256-0.237
		c0.358-0.163,0.687-0.943,0.978-1.412l3.44-9.157h0.255c-0.09,0-0.161,2.09-0.21,2.894c-0.052,0.803-0.077,1.792-0.077,2.511
		c0,0.74,0.033,1.54,0.109,2.175c0.071,0.625,0.192,1.233,0.364,1.697c0.169,0.466,0.391,0.854,0.668,1.116
		c0.276,0.258,0.62,0.403,1.024,0.403c0.826,0,1.565-0.1,2.219-0.316c0.654-0.214,1.256-0.481,1.805-0.813
		c0.545-0.335,1.065-0.709,1.556-1.119c0.15-0.124,0.301-0.235,0.449-0.357c-0.37-0.553-0.685-1.152-0.89-1.838
		C24.826,86.518,24.76,86.168,24.697,85.817z"/>
	<path d="M38.029,86.035c0.048-0.569,0.116-1.166,0.193-1.789c-0.232,0.19-0.473,0.382-0.74,0.578
		c-0.633,0.471-1.306,0.905-2.016,1.302c-0.712,0.396-1.442,0.728-2.194,0.992c-0.75,0.266-1.465,0.398-2.142,0.398
		c-0.216,0-0.419-0.022-0.603-0.066c-0.189-0.043-0.367-0.123-0.538-0.231c-0.168-0.11-0.338-0.266-0.499-0.465
		c-0.165-0.196-0.332-0.445-0.503-0.744c0.985-0.266,1.897-0.636,2.742-1.109c0.844-0.477,1.568-1.015,2.181-1.626
		c0.611-0.605,1.145-1.334,1.603-2.185c0.459-0.848,0.686-1.617,0.686-2.301c0-0.642-0.112-1.224-0.338-1.742
		c-0.223-0.519-0.536-0.961-0.939-1.327c-0.399-0.366-0.875-0.651-1.416-0.855c-0.544-0.202-1.128-0.305-1.763-0.305
		c-0.774,0-1.479,0.137-2.114,0.409c-0.637,0.273-1.207,0.641-1.72,1.104c-0.513,0.461-0.958,0.998-1.34,1.604
		c-0.378,0.606-0.697,1.246-0.951,1.914c-0.252,0.668-0.497,1.434-0.731,2.299c-0.235,0.863-0.352,1.607-0.352,2.231
		c0,0.58,0.064,1.146,0.162,1.695c0.074-0.066,0.153-0.129,0.225-0.198c0.552-0.522,1.102-1.115,1.644-1.777l0.286,4.015
		c-0.347,0.269-0.688,0.551-1.033,0.833c0.1,0.149,0.183,0.315,0.296,0.456c0.525,0.662,1.187,1.188,1.976,1.58
		c0.793,0.39,1.714,0.584,2.768,0.584c0.682,0,1.349-0.079,2.008-0.236c0.66-0.156,1.3-0.363,1.915-0.628
		c0.613-0.261,1.203-0.561,1.761-0.896c0.519-0.312,0.998-0.629,1.453-0.949c-0.02-0.276-0.051-0.545-0.051-0.829
		C37.943,87.273,37.975,86.695,38.029,86.035z M29.439,79.726c0.141-0.362,0.328-0.679,0.56-0.961
		c0.233-0.282,0.522-0.511,0.867-0.688c0.348-0.177,0.764-0.267,1.251-0.267c0.272,0,0.502,0.16,0.688,0.479
		c0.186,0.321,0.283,0.73,0.283,1.228c0,0.354-0.202,0.8-0.6,1.343c-0.396,0.538-0.801,0.97-1.214,1.288
		c-0.416,0.323-0.863,0.585-1.343,0.788c-0.481,0.205-0.926,0.309-1.335,0.309c0-0.245,0.011-0.535,0.033-0.88"/>
	<path fill="#010101" d="M26.565,83.842c-0.542,0.662-1.092,1.255-1.644,1.777c-0.071,0.069-0.15,0.132-0.225,0.198
		c0.063,0.351,0.129,0.7,0.231,1.036c0.205,0.684,0.52,1.283,0.89,1.836c0.345-0.282,0.687-0.564,1.033-0.833L26.565,83.842z"/>
	<path d="M52.525,81.94c-0.246,0.129-0.506,0.245-0.777,0.36c-0.541,0.226-1.066,0.338-1.575,0.338
		c-0.179,0-0.352-0.034-0.516-0.103c-0.165-0.068-0.313-0.183-0.441-0.347c-0.129-0.163-0.235-0.379-0.313-0.651
		c-0.079-0.271-0.12-0.609-0.12-1.017c0-0.238,0.029-0.533,0.085-0.889c0.057-0.356,0.147-0.811,0.272-1.363
		c0.124-0.554,0.214-1.002,0.271-1.346c0.058-0.346,0.086-0.612,0.086-0.808c0-0.246-0.047-0.469-0.136-0.668
		c-0.091-0.196-0.213-0.362-0.365-0.496c-0.151-0.139-0.331-0.242-0.533-0.316c-0.204-0.073-0.414-0.109-0.626-0.109
		c-0.622,0-1.169,0.167-1.644,0.5c-0.474,0.332-0.899,0.74-1.272,1.228c-0.369,0.483-0.726,0.415-1.063,1.149
		c-0.339,0.731-0.622,1.097-0.848,1.097h-0.188c-0.021,0-0.006-0.566,0.052-1.334c0.056-0.77,0.085-1.02,0.085-1.438
		c0-0.354-0.01-0.458-0.027-0.662c-0.016-0.201-0.062-0.27-0.142-0.382c-0.081-0.104-0.201-0.133-0.364-0.16
		c-0.166-0.029-0.395-0.02-0.687-0.02c-0.261,0-0.476,0.024-0.653,0.051c-0.173,0.029-0.319,0.091-0.438,0.174
		c-0.118,0.088-0.223,0.206-0.313,0.354c-0.093,0.146-0.181,0.346-0.273,0.593c-0.146,0.376-0.294,0.848-0.438,1.425
		c-0.147,0.576-0.322,1.295-0.527,2.159c-0.2,0.864-0.368,1.679-0.497,2.438c-0.133,0.764-0.245,1.511-0.341,2.244
		c-0.014,0.104-0.023,0.202-0.035,0.304c0.318-0.261,0.614-0.514,0.869-0.755l2.183,2.219c-0.993,1.06-2.05,1.994-3.165,2.809
		c-0.036,0.026-0.08,0.053-0.115,0.081c0.012,0.158,0.01,0.327,0.027,0.481c0.052,0.427,0.152,0.804,0.305,1.137
		c0.154,0.332,0.369,0.599,0.653,0.795c0.281,0.197,0.653,0.297,1.118,0.297c0.202,0,0.389-0.036,0.557-0.11
		c0.169-0.073,0.33-0.201,0.475-0.38c0.148-0.183,0.29-0.415,0.432-0.704c0.142-0.287,0.292-0.689,0.448-1.127l3.033-8.488h0.271
		c0.088,0,0.206,1.45,0.355,2.144c0.146,0.692,0.372,1.337,0.677,1.899c0.305,0.561,0.719,1.018,1.237,1.362
		c0.519,0.347,1.2,0.523,2.048,0.523c0.477,0,0.94-0.069,1.398-0.21c0.161-0.049,0.309-0.127,0.462-0.183
		c0.037-0.695,0.132-1.402,0.325-2.13C51.984,83.288,52.234,82.627,52.525,81.94z"/>
	<path d="M41.274,85.71l-2.183-2.219c-0.255,0.241-0.551,0.494-0.869,0.755c-0.077,0.623-0.146,1.22-0.193,1.789
		c-0.055,0.66-0.086,1.238-0.086,1.735c0,0.284,0.031,0.553,0.051,0.829c0.035-0.028,0.079-0.055,0.115-0.081
		C39.225,87.704,40.281,86.77,41.274,85.71z"/>
	<path d="M68.87,85.046c0.012-0.284,0.031-0.596,0.046-0.894c-0.361,0.456-0.724,0.894-1.078,1.28
		c-0.237,0.259-0.489,0.51-0.755,0.747c-0.266,0.241-0.532,0.456-0.797,0.648c-0.266,0.192-0.528,0.344-0.787,0.461
		c-0.262,0.119-0.506,0.177-0.744,0.177c-0.318,0-0.521-0.145-0.619-0.438c-0.097-0.293-0.145-0.695-0.145-1.212
		c0-0.605,0.095-1.352,0.28-2.235s0.354-1.669,0.499-2.358c0.143-0.692,0.274-1.366,0.387-2.026c0.112-0.656,0.17-1.255,0.17-1.795
		c0-0.354-0.031-0.633-0.095-0.84c-0.063-0.201-0.149-0.365-0.263-0.477c-0.112-0.114-0.244-0.189-0.392-0.224
		c-0.146-0.032-0.307-0.049-0.478-0.049c-0.123,0-0.251,0.001-0.381,0.007c-0.132,0.007-0.26,0.01-0.386,0.01
		c-0.146,0-0.29-0.01-0.432-0.028c-0.143-0.016-0.283-0.055-0.419-0.11c-0.137-0.057-0.251-0.149-0.339-0.274
		c-0.095-0.126-0.187-0.254-0.283-0.386c-0.095-0.13-0.219-0.248-0.366-0.349c-0.148-0.104-0.35-0.154-0.612-0.154
		c-0.786,0-1.556,0.167-2.309,0.497c-0.756,0.331-1.475,0.779-2.155,1.342c-0.685,0.563-1.312,1.222-1.883,1.976
		c-0.572,0.752-1.11,1.647-1.609,2.684c-0.155,0.315-0.271,0.612-0.401,0.916c0.249-0.126,0.486-0.261,0.714-0.402
		c0.529-0.329,1.05-0.702,1.557-1.118l-0.252,3.963c-0.295,0.19-0.627,0.406-1.001,0.644c-0.371,0.238-0.771,0.459-1.193,0.668
		c-0.275,0.137-0.568,0.233-0.858,0.341c-0.005,0.157-0.029,0.316-0.029,0.472c0,0.75,0.118,1.427,0.354,2.026
		c0.238,0.599,0.554,1.105,0.95,1.522c0.395,0.414,0.847,0.734,1.361,0.954c0.515,0.223,1.041,0.335,1.583,0.335
		c0.512,0,1.024-0.086,1.539-0.254c0.511-0.164,1.002-0.381,1.474-0.646c0.473-0.261,0.908-0.554,1.308-0.879
		c0.399-0.324,0.734-0.641,1.008-0.954c0.364,0.903,0.796,1.595,1.296,2.069c0.503,0.475,1.125,0.714,1.878,0.714
		c0.62,0,1.24-0.156,1.862-0.463c0.619-0.31,1.202-0.687,1.744-1.13c0.373-0.31,0.712-0.63,1.036-0.958
		c-0.029-0.383-0.051-0.774-0.051-1.202C68.805,86.99,68.826,86.123,68.87,85.046z M59.14,86.232
		c-0.25,0.515-0.546,0.951-0.886,1.313c-0.336,0.363-0.717,0.547-1.135,0.547c-0.259,0-0.477-0.066-0.646-0.201
		c-0.17-0.135-0.307-0.31-0.405-0.523c-0.101-0.217-0.173-0.46-0.213-0.732c-0.042-0.277-0.059-0.558-0.059-0.851
		c0-0.494,0.063-1.019,0.193-1.576c0.13-0.561,0.354-1.211,0.67-1.947c0.315-0.739,0.637-1.359,0.965-1.865
		c0.327-0.503,0.686-0.952,1.075-1.343c0.391-0.391,0.806-0.702,1.245-0.931c0.441-0.229,0.892-0.346,1.354-0.346l-1.262,5.506"/>
	<path d="M53.543,85.026c0.374-0.237,0.706-0.453,1.001-0.644l0.252-3.963c-0.507,0.416-1.027,0.789-1.557,1.118
		c-0.228,0.142-0.465,0.276-0.714,0.402c-0.291,0.687-0.541,1.351-0.709,1.969c-0.193,0.725-0.288,1.433-0.325,2.126
		c0.29-0.107,0.583-0.204,0.858-0.341C52.771,85.485,53.172,85.265,53.543,85.026z"/>
	<path d="M83.03,87.904c0-0.354,0.021-0.738,0.06-1.153c0.04-0.416,0.098-0.86,0.178-1.335c0.043-0.265,0.085-0.505,0.122-0.737
		c-0.192,0.241-0.392,0.483-0.603,0.741c-0.818,0.992-2.183,2.936-3.697,2.572c-0.765-0.188-1.619-0.647-1.672-1.517
		c-0.107-1.664,2.154-2.95,3.147-4.003c1.124-1.189,2.585-3.028,2.585-4.76c0-0.482-0.061-0.915-0.188-1.308
		c-0.075-0.236-0.171-0.446-0.282-0.642c-0.637-1.149-1.854,1.241-2.09,1.638c-0.729,1.232-1.614,2.373-2.609,3.396
		c-1.548,1.592-3.532,2.764-4.021,5.088c-0.244,1.144-0.116,2.574,0.731,3.442c1.762,1.805,4.674,1.929,6.94,1.148
		c0.193-0.067,1.805-0.747,1.742-0.869c-0.052-0.113-0.111-0.22-0.151-0.341C83.095,88.862,83.033,88.409,83.03,87.904z"/>
	<path d="M72.503,85.826c0-0.645,0.017-1.934,0.017-1.934l1.484-2.177l2.015-3.037c0.103-0.181,0.306-0.565,0.616-1.149
		c0.312-0.586,0.672-1.306,1.075-2.157c0.41-0.852,0.831-1.807,1.271-2.865c0.442-1.055,0.846-2.146,1.22-3.265
		c0.373-1.117,0.681-2.235,0.924-3.35c0.243-1.112,0.364-2.153,0.364-3.12c0-0.54-0.045-1.038-0.135-1.501
		c-0.091-0.459-0.247-0.856-0.468-1.189c-0.219-0.331-0.517-0.591-0.887-0.775c-0.375-0.184-0.85-0.277-1.426-0.277
		c-0.731,0-1.411,0.151-2.032,0.456c-0.62,0.304-1.192,0.717-1.712,1.242c-0.52,0.524-0.99,1.135-1.408,1.833
		c-0.415,0.696-0.793,1.432-1.127,2.202c-0.333,0.773-0.616,1.572-0.845,2.396c-0.229,0.828-0.448,1.613-0.657,2.363
		c-0.207,0.75-0.374,1.456-0.495,2.119c-0.123,0.664-0.224,1.225-0.308,1.682c-0.216,1.331-0.399,2.701-0.552,4.114
		c-0.15,1.409-0.272,2.761-0.362,4.053c-0.068,0.949-0.12,1.824-0.16,2.661c0.198-0.25,0.395-0.495,0.599-0.768l0.813,3.73
		c-0.263,0.362-0.608,0.792-1.044,1.282c-0.134,0.151-0.285,0.299-0.429,0.447c0.004,0.067,0.001,0.145,0.008,0.212
		c0.041,0.439,0.132,0.828,0.279,1.161c0.146,0.334,0.36,0.602,0.645,0.796c0.28,0.198,0.664,0.296,1.151,0.296
		c0.361,0,0.676-0.083,0.947-0.252c0.073-0.048,0.147-0.122,0.221-0.187C72.726,90.066,72.5,88.06,72.503,85.826z M74.329,74.706
		c-0.293,0.866-0.586,1.741-0.883,2.628c-0.298,0.891-0.568,1.709-0.817,2.47c0.102-1.38,0.236-2.779,0.405-4.202
		c0.087-0.575,0.185-1.195,0.283-1.854c0.097-0.658,0.198-1.331,0.302-2.014c0.106-0.683,0.242-1.371,0.411-2.064
		c0.171-0.698,0.338-1.377,0.497-2.033c0.299-0.73,0.566-1.396,0.801-1.993c0.23-0.595,0.468-1.101,0.704-1.518
		c0.234-0.42,0.485-0.738,0.746-0.964c0.264-0.225,0.579-0.336,0.945-0.336c0.241,0,0.36,0.18,0.36,0.54
		c0,0.262-0.045,0.578-0.136,0.951c-0.094,0.371-0.208,0.771-0.351,1.2c-0.144,0.431-0.301,0.876-0.473,1.339
		c-0.172,0.464-0.34,0.91-0.513,1.34c-0.169,0.427-0.332,0.828-0.481,1.2c-0.145,0.373-0.261,0.682-0.34,0.932"/>
	<path d="M70.328,87.115l-0.813-3.73c-0.204,0.272-0.4,0.518-0.599,0.768c-0.015,0.298-0.034,0.609-0.046,0.894
		c-0.044,1.077-0.065,1.944-0.065,2.597c0,0.428,0.021,0.819,0.051,1.202c0.144-0.148,0.295-0.296,0.429-0.447
		C69.72,87.907,70.065,87.478,70.328,87.115z"/>
	<path fill="#010002" d="M89.212,72.529c0.576,0,1.069-0.09,1.482-0.268c0.414-0.177,0.755-0.404,1.024-0.692
		c0.271-0.284,0.467-0.608,0.593-0.973c0.124-0.367,0.186-0.742,0.186-1.129c0-0.421-0.073-0.787-0.227-1.093
		c-0.151-0.307-0.358-0.557-0.618-0.743c-0.261-0.189-0.568-0.329-0.916-0.42c-0.351-0.092-0.723-0.138-1.12-0.138
		c-0.63,0-1.157,0.1-1.58,0.3c-0.422,0.2-0.763,0.444-1.018,0.734c-0.254,0.291-0.438,0.602-0.549,0.932
		c-0.114,0.331-0.17,0.629-0.17,0.892c0,0.785,0.236,1.414,0.711,1.886C87.485,72.293,88.217,72.529,89.212,72.529z"/>
	<path d="M91.894,85.366c-0.483,0.429-0.637,0.844-1.145,1.243c-0.509,0.401-0.839,0.743-1.337,1.023
		c-0.496,0.284-0.859,0.427-1.266,0.427c-0.351,0-0.541-0.15-0.655-0.45c-0.111-0.301-0.146-0.701-0.146-1.21
		c0-0.52,0.093-1.098,0.254-1.73c0.161-0.635,0.304-1.275,0.407-1.919c0.109-0.643,0.31-1.42,0.603-2.333
		c0.288-0.91,0.512-1.657,0.661-2.236c0.148-0.579,0.278-1.097,0.396-1.551c0.116-0.454,0.173-0.805,0.173-1.054
		c0-0.293-0.085-0.527-0.249-0.702c-0.165-0.178-0.484-0.264-0.948-0.264c-0.256,0-0.54,0.031-0.857,0.096
		c-0.317,0.063-0.62,0.158-0.914,0.287c-0.296,0.136-0.558,0.304-0.792,0.51c-0.256,0.227-0.407,0.483-0.465,0.77
		c-0.102,0.405-0.364,1.282-0.795,2.635c-0.462,1.651-0.768,2.721-0.922,3.203c-0.081,0.21-0.251,1.069-0.507,2.568
		c0.05-0.059,0.102-0.123,0.148-0.18c0.236-0.296,0.452-0.543,0.645-0.748l1.016,4.22c-0.349,0.478-0.792,0.917-1.329,1.318
		c-0.173,0.136-0.362,0.253-0.546,0.375c0.105,0.267,0.229,0.512,0.402,0.714c0.247,0.295,0.573,0.523,0.974,0.687
		c0.401,0.165,0.896,0.245,1.481,0.245c0.657,0,1.347-0.118,2.075-0.354c0.728-0.238,1.443-0.534,2.143-0.89
		c0.7-0.356,0.662-0.747,1.268-1.169c0.603-0.423,0.834-0.824,0.834-1.194v-3.436C92.5,84.568,92.383,84.936,91.894,85.366z"/>
	<path d="M85.198,87.971l-1.016-4.22c-0.192,0.205-0.408,0.452-0.645,0.748c-0.047,0.057-0.099,0.121-0.148,0.18
		c-0.037,0.232-0.079,0.473-0.122,0.737c-0.158,0.948-0.237,1.776-0.237,2.488c0,0.51,0.055,0.976,0.16,1.397
		c0.032,0.129,0.087,0.246,0.133,0.362c0.184-0.122,0.373-0.239,0.546-0.375C84.406,88.888,84.85,88.448,85.198,87.971z"/>
	<path fill="none" d="M12.066,73.112c-0.762-3.4-1.16-6.937-1.16-10.566c0-26.488,21.328-47.958,47.641-47.958
		s47.639,21.47,47.639,47.958c0,3.487-0.369,6.887-1.068,10.161"/>
	
		<text transform="matrix(0.8772 -0.3775 0.3953 0.9186 37.1904 19.5679)" fill="#030104" font-family="'BenthamRegular'" font-size="7.5062">M</text>
	
		<text transform="matrix(0.9181 -0.2628 0.2753 0.9614 43.3789 17.0171)" fill="#030104" font-family="'BenthamRegular'" font-size="7.5062">A</text>
	
		<text transform="matrix(0.941 -0.1627 0.1704 0.9854 48.5264 15.6118)" fill="#030104" font-family="'BenthamRegular'" font-size="7.5062">R</text>
	
		<text transform="matrix(0.9526 -0.0661 0.0692 0.9976 53.2842 14.8384)" fill="#030104" font-family="'BenthamRegular'" font-size="7.5062">K</text>
	
		<text transform="matrix(0.9546 0.0266 -0.0279 0.9996 58.1279 14.5581)" fill="#030104" font-family="'BenthamRegular'" font-size="7.5062">E</text>
	
		<text transform="matrix(0.9479 0.1159 -0.1214 0.9926 62.5859 14.7251)" fill="#030104" font-family="'BenthamRegular'" font-size="7.5062">T</text>
	
		<text transform="matrix(0.9362 0.1882 -0.1971 0.9804 67.0898 15.3496)" fill="#030104" font-family="'BenthamRegular'" font-size="7.5062">I</text>
	
		<text transform="matrix(0.9157 0.2711 -0.2839 0.9589 69.75 15.8618)" fill="#030104" font-family="'BenthamRegular'" font-size="7.5062">N</text>
	
		<text transform="matrix(0.8772 0.3775 -0.3953 0.9186 75.1318 17.5137)" fill="#030104" font-family="'BenthamRegular'" font-size="7.5062">G</text>
	<g>
		<defs>
			<polygon id="SVGID_5_" points="114.534,79.438 2.358,68.557 2.358,47.536 114.534,47.536 			"/>
		</defs>
		<clipPath id="SVGID_6_">
			<use xlink:href="#SVGID_5_"  overflow="visible"/>
		</clipPath>
		<path clip-path="url(#SVGID_6_)" fill="none" stroke="#010002" stroke-miterlimit="10" d="M109.006,61.508
			c0,27.638-22.406,50.04-50.043,50.04S8.92,89.146,8.92,61.508c0-27.64,22.406-50.044,50.043-50.044S109.006,33.868,109.006,61.508
			z"/>
	</g>
	
		<text transform="matrix(0.9613 0 0 1 64.7783 101.3613)" fill="#000000" font-family="'BebasNeueRegular'" font-size="8.7573" letter-spacing="1.04">Desing</text>
	<g>
		<defs>
			<polygon id="SVGID_7_" points="106.428,83.491 10.034,69.298 10.466,14.59 106.428,14.59 			"/>
		</defs>
		<clipPath id="SVGID_8_">
			<use xlink:href="#SVGID_7_"  overflow="visible"/>
		</clipPath>
		<circle clip-path="url(#SVGID_8_)" fill="none" stroke="#010002" stroke-miterlimit="10" cx="58.887" cy="62.256" r="42.809"/>
	</g>
	<polygon points="63.284,95.176 63.284,101.361 36.087,101.361 40.581,98.269 34.371,95.176 	"/>
</g>
</svg>
